<svg width="30" height="30" viewBox="0 0 30 30" fill="none" xmlns="http://www.w3.org/2000/svg">
<g clip-path="url(#clip0_497_6)">
<mask id="mask0_497_6" style="mask-type:luminance" maskUnits="userSpaceOnUse" x="0" y="0" width="30" height="30">
<path d="M30 0H0V30H30V0Z" fill="white"/>
</mask>
<g mask="url(#mask0_497_6)">
<path d="M14.5985 0.399421C5.90686 0.853588 0.169366 7.67025 0.531865 16.2661C0.690199 20.0286 2.2027 23.2661 2.56103 26.8369C2.6527 27.7619 2.38603 28.9036 3.4527 29.3077C4.7652 29.8036 6.7777 28.9702 7.8777 28.2077C8.2527 27.9536 8.61104 27.6577 8.88604 27.2911C10.0235 28.0452 11.1027 28.7744 12.4569 29.0994C18.4194 30.5286 24.9527 27.2577 27.8569 22.0036C33.3152 12.1328 25.936 -0.192246 14.5985 0.399421ZM11.2235 20.9994C10.7527 21.3661 10.2985 21.8661 9.7777 22.1536C9.02353 22.5577 8.7902 22.1369 8.50686 21.4702C7.6152 19.3494 7.50686 15.7369 8.0277 13.5161C8.7277 10.4953 11.0652 7.83693 14.2777 7.55359C17.5277 7.26609 20.5444 8.91609 21.9069 11.8953C24.9235 18.5244 17.2027 25.0702 11.2235 21.0036V20.9994Z" fill="black"/>
</g>
</g>
<defs>
<clipPath id="clip0_497_6">
<rect width="30" height="30" fill="white"/>
</clipPath>
</defs>
</svg>
